<svg width="42" height="30" viewBox="0 0 42 30" fill="none" xmlns="http://www.w3.org/2000/svg">
<path d="M4.01479 22.0078C4.16259 22.5058 4.72809 22.8047 5.27432 22.6699L19.1805 19.2715C19.7268 19.1367 20.0545 18.6211 19.9067 18.123L16.7129 7.2539C16.5651 6.75585 15.9996 6.45702 15.4534 6.59179L10.4924 7.81054L12.0861 13.2422L8.11468 14.209L6.52099 8.77733L1.55357 9.99022C1.00734 10.125 0.679609 10.6406 0.82741 11.1387L4.01479 22.0078ZM25.4653 0C24.3279 0 23.409 0.83789 23.409 1.875V20.8359L1.168 26.3672C0.891672 26.4375 0.731018 26.6953 0.808132 26.9414L1.61783 29.6543C1.69494 29.9062 1.97769 30.0527 2.24759 29.9824L27.5474 23.6894C27.7016 27.1933 30.8376 30 34.719 30C38.6968 30 41.9163 27.0644 41.9163 23.4375V0H25.4653ZM34.719 26.25C33.0161 26.25 31.6344 24.9902 31.6344 23.4375C31.6344 21.8847 33.0161 20.625 34.719 20.625C36.4219 20.625 37.8036 21.8847 37.8036 23.4375C37.8036 24.9902 36.4219 26.25 34.719 26.25Z" fill="black"/>
</svg>
