<svg width="21" height="20" viewBox="0 0 21 20" fill="none" xmlns="http://www.w3.org/2000/svg">
<g clip-path="url(#clip0_3622_1061)">
<path d="M10.2243 12.5C11.6174 12.5 12.7467 11.3807 12.7467 10C12.7467 8.61929 11.6174 7.5 10.2243 7.5C8.8312 7.5 7.70187 8.61929 7.70187 10C7.70187 11.3807 8.8312 12.5 10.2243 12.5Z" stroke="white" stroke-width="2" stroke-linecap="round" stroke-linejoin="round"/>
<path d="M16.4463 12.5C16.3344 12.7513 16.301 13.0302 16.3504 13.3005C16.3999 13.5708 16.5299 13.8203 16.7238 14.0167L16.7742 14.0667C16.9306 14.2215 17.0546 14.4053 17.1392 14.6076C17.2238 14.8099 17.2674 15.0268 17.2674 15.2458C17.2674 15.4649 17.2238 15.6817 17.1392 15.8841C17.0546 16.0864 16.9306 16.2702 16.7742 16.425C16.618 16.58 16.4326 16.7029 16.2284 16.7868C16.0243 16.8706 15.8055 16.9138 15.5845 16.9138C15.3635 16.9138 15.1447 16.8706 14.9405 16.7868C14.7364 16.7029 14.5509 16.58 14.3947 16.425L14.3443 16.375C14.1461 16.1829 13.8944 16.054 13.6217 16.005C13.3489 15.956 13.0676 15.9891 12.814 16.1C12.5653 16.2056 12.3532 16.381 12.2038 16.6046C12.0544 16.8282 11.9743 17.0902 11.9732 17.3583V17.5C11.9732 17.942 11.796 18.366 11.4807 18.6785C11.1653 18.9911 10.7376 19.1667 10.2916 19.1667C9.84559 19.1667 9.41787 18.9911 9.1025 18.6785C8.78714 18.366 8.60997 17.942 8.60997 17.5V17.425C8.60346 17.1492 8.51337 16.8817 8.35143 16.6573C8.18948 16.4328 7.96316 16.2619 7.70189 16.1667C7.44829 16.0557 7.16698 16.0227 6.89422 16.0717C6.62147 16.1207 6.36979 16.2496 6.17162 16.4417L6.12118 16.4917C5.965 16.6466 5.77954 16.7696 5.57539 16.8534C5.37125 16.9373 5.15242 16.9805 4.93143 16.9805C4.71044 16.9805 4.49162 16.9373 4.28748 16.8534C4.08333 16.7696 3.89787 16.6466 3.74169 16.4917C3.58534 16.3369 3.46131 16.1531 3.37668 15.9507C3.29205 15.7484 3.2485 15.5315 3.2485 15.3125C3.2485 15.0935 3.29205 14.8766 3.37668 14.6743C3.46131 14.4719 3.58534 14.2881 3.74169 14.1333L3.79214 14.0833C3.98598 13.8869 4.11601 13.6375 4.16546 13.3672C4.21492 13.0968 4.18153 12.818 4.06961 12.5667C3.96302 12.3202 3.78605 12.11 3.56047 11.9619C3.33489 11.8139 3.07055 11.7344 2.79999 11.7333H2.65705C2.21106 11.7333 1.78333 11.5577 1.46797 11.2452C1.1526 10.9326 0.975433 10.5087 0.975433 10.0667C0.975433 9.62464 1.1526 9.20072 1.46797 8.88816C1.78333 8.5756 2.21106 8.4 2.65705 8.4H2.73272C3.01102 8.39355 3.28093 8.30427 3.50736 8.14376C3.73378 7.98326 3.90625 7.75895 4.00234 7.5C4.11427 7.24866 4.14765 6.96984 4.0982 6.69951C4.04874 6.42918 3.91871 6.17974 3.72487 5.98334L3.67443 5.93334C3.51808 5.77855 3.39404 5.59473 3.30942 5.3924C3.22479 5.19007 3.18123 4.9732 3.18123 4.75417C3.18123 4.53514 3.22479 4.31827 3.30942 4.11594C3.39404 3.91361 3.51808 3.72979 3.67443 3.575C3.8306 3.42004 4.01607 3.29711 4.22021 3.21324C4.42436 3.12936 4.64318 3.08619 4.86417 3.08619C5.08516 3.08619 5.30398 3.12936 5.50813 3.21324C5.71227 3.29711 5.89773 3.42004 6.05391 3.575L6.10436 3.625C6.30252 3.81712 6.55421 3.94599 6.82696 3.99501C7.09971 4.04402 7.38103 4.01093 7.63463 3.9H7.70189C7.95058 3.79437 8.16267 3.61897 8.31206 3.39539C8.46145 3.17182 8.54162 2.90982 8.5427 2.64167V2.5C8.5427 2.05798 8.71987 1.63405 9.03524 1.32149C9.3506 1.00893 9.77833 0.833336 10.2243 0.833336C10.6703 0.833336 11.098 1.00893 11.4134 1.32149C11.7288 1.63405 11.9059 2.05798 11.9059 2.5V2.575C11.907 2.84316 11.9872 3.10515 12.1366 3.32872C12.286 3.5523 12.4981 3.7277 12.7467 3.83334C13.0003 3.94427 13.2817 3.97736 13.5544 3.92834C13.8272 3.87932 14.0788 3.75045 14.277 3.55834L14.3275 3.50834C14.4836 3.35338 14.6691 3.23044 14.8732 3.14657C15.0774 3.0627 15.2962 3.01952 15.5172 3.01952C15.7382 3.01952 15.957 3.0627 16.1612 3.14657C16.3653 3.23044 16.5508 3.35338 16.7069 3.50834C16.8633 3.66312 16.9873 3.84694 17.072 4.04927C17.1566 4.2516 17.2001 4.46848 17.2001 4.6875C17.2001 4.90653 17.1566 5.12341 17.072 5.32574C16.9873 5.52807 16.8633 5.71188 16.7069 5.86667L16.6565 5.91667C16.4627 6.11307 16.3326 6.36252 16.2832 6.63285C16.2337 6.90317 16.2671 7.18199 16.379 7.43334V7.5C16.4856 7.74648 16.6626 7.95668 16.8882 8.10475C17.1137 8.25281 17.3781 8.33227 17.6486 8.33334H17.7916C18.2376 8.33334 18.6653 8.50893 18.9807 8.82149C19.296 9.13405 19.4732 9.55798 19.4732 10C19.4732 10.442 19.296 10.866 18.9807 11.1785C18.6653 11.4911 18.2376 11.6667 17.7916 11.6667H17.7159C17.4454 11.6677 17.181 11.7472 16.9554 11.8953C16.7299 12.0433 16.5529 12.2535 16.4463 12.5V12.5Z" stroke="white" stroke-width="2" stroke-linecap="round" stroke-linejoin="round"/>
</g>
<defs>
<clipPath id="clip0_3622_1061">
<rect width="20.1794" height="20" fill="white" transform="translate(0.134613)"/>
</clipPath>
</defs>
</svg>
