<svg width="21" height="21" viewBox="0 0 21 21" fill="none" xmlns="http://www.w3.org/2000/svg">
  <g clip-path="url(#clip0_3622_1071)">
    <path
      d="M8.35613 19.0957C8.81466 19.0957 9.18636 18.7071 9.18636 18.2277C9.18636 17.7484 8.81466 17.3598 8.35613 17.3598C7.89761 17.3598 7.52591 17.7484 7.52591 18.2277C7.52591 18.7071 7.89761 19.0957 8.35613 19.0957Z"
      stroke="white"
      stroke-width="2"
      stroke-linecap="round"
      stroke-linejoin="round"
    />
    <path
      d="M17.4886 19.0957C17.9471 19.0957 18.3188 18.7071 18.3188 18.2277C18.3188 17.7484 17.9471 17.3598 17.4886 17.3598C17.0301 17.3598 16.6584 17.7484 16.6584 18.2277C16.6584 18.7071 17.0301 19.0957 17.4886 19.0957Z"
      stroke="white"
      stroke-width="2"
      stroke-linecap="round"
      stroke-linejoin="round"
    />
    <path
      d="M1.71432 0.867989H5.03523L7.26023 12.4903C7.33615 12.89 7.5441 13.2489 7.84766 13.5044C8.15122 13.7599 8.53106 13.8956 8.92069 13.8878H16.9905C17.3801 13.8956 17.76 13.7599 18.0635 13.5044C18.3671 13.2489 18.575 12.89 18.6509 12.4903L19.9793 5.20793H5.86545"
      stroke="white"
      stroke-width="2"
      stroke-linecap="round"
      stroke-linejoin="round"
    />
  </g>
  <defs>
    <clipPath id="clip0_3622_1071">
      <rect width="19.9254" height="20.8317" fill="white" transform="translate(0.884094)" />
    </clipPath>
  </defs>
</svg>
