<svg width="30" height="31" viewBox="0 0 30 31" fill="none" xmlns="http://www.w3.org/2000/svg">
<path d="M20 4H1.25V20.25H20V4Z" stroke="#FFD333" stroke-width="2" stroke-linecap="round" stroke-linejoin="round"/>
<path d="M20 10.25H25L28.75 14V20.25H20V10.25Z" stroke="#FFD333" stroke-width="2" stroke-linecap="round" stroke-linejoin="round"/>
<path d="M6.875 26.5C8.60089 26.5 10 25.1009 10 23.375C10 21.6491 8.60089 20.25 6.875 20.25C5.14911 20.25 3.75 21.6491 3.75 23.375C3.75 25.1009 5.14911 26.5 6.875 26.5Z" stroke="#FFD333" stroke-width="2" stroke-linecap="round" stroke-linejoin="round"/>
<path d="M23.125 26.5C24.8509 26.5 26.25 25.1009 26.25 23.375C26.25 21.6491 24.8509 20.25 23.125 20.25C21.3991 20.25 20 21.6491 20 23.375C20 25.1009 21.3991 26.5 23.125 26.5Z" stroke="#FFD333" stroke-width="2" stroke-linecap="round" stroke-linejoin="round"/>
</svg>
